<svg xmlns="http://www.w3.org/2000/svg" viewBox="0 0 150 150" width="200" height="200">
  <path d="M100 20 L50 100 L80 100 L100 60 L100 20 Z" fill="#1E3A8A"/>
  <path d="M50 100 L100 140 L100 100 L50 100 Z" fill="#1E3A8A"/>
  <path d="M100 140 L75 180 L100 180 L100 140 Z" fill="#1E3A8A"/>

  <path d="M100 20 L150 100 L120 100 L100 60 L100 20 Z" fill="#6D28D9"/>
  <path d="M150 100 L100 140 L100 100 L150 100 Z" fill="#6D28D9"/>
  <path d="M100 140 L125 180 L100 180 L100 140 Z" fill="#6D28D9"/>

  <path d="M100 20 L100 60" stroke="white" stroke-width="2"/>
  <path d="M100 60 L80 100" stroke="white" stroke-width="2"/>
  <path d="M100 60 L120 100" stroke="white" stroke-width="2"/>
  <path d="M100 100 L100 140" stroke="white" stroke-width="2"/>
  <path d="M100 140 L75 180" stroke="white" stroke-width="2"/>
  <path d="M100 140 L125 180" stroke="white" stroke-width="2"/>
</svg>